<svg xmlns="http://www.w3.org/2000/svg" xmlns:xlink="http://www.w3.org/1999/xlink" width="103" zoomAndPan="magnify" viewBox="0 0 77.25 30.000001" height="40" preserveAspectRatio="xMidYMid meet" version="1.0"><defs><g/><clipPath id="6cfc464bd4"><path d="M 68 6 L 75.640625 6 L 75.640625 20 L 68 20 Z M 68 6 " clip-rule="nonzero"/></clipPath></defs><g fill="#39ff14" fill-opacity="1"><g transform="translate(8.770429, 22.258065)"><g><path d="M 10.542969 -11.359375 L 5.753906 -11.359375 L 5.753906 -6.09375 L 5.101562 -6.09375 L 5.101562 -11.359375 L 0.324219 -11.359375 L 3.535156 -3.863281 L 3.535156 0 L 7.316406 0 L 7.316406 -3.863281 Z M 10.542969 -11.359375 "/></g></g></g><g fill="#39ff14" fill-opacity="1"><g transform="translate(2.105474, 12.580646)"><g><path d="M 4.597656 0 L 4.597656 -11.359375 L 0.816406 -11.359375 L 0.816406 0 Z M 5.28125 -11.359375 C 5.28125 -11.359375 5.265625 -11.359375 5.265625 -11.359375 L 5.183594 -11.359375 L 5.183594 -3.847656 C 5.558594 -3.894531 5.898438 -3.960938 6.210938 -4.042969 C 7.921875 -4.5 8.996094 -5.898438 8.996094 -7.644531 C 8.996094 -9.695312 7.335938 -11.359375 5.28125 -11.359375 Z M 5.28125 -11.359375 "/></g></g></g><g fill="#ffffff" fill-opacity="1"><g transform="translate(3.394735, 14.062989)"><g><path d="M 4.597656 0 L 4.597656 -11.359375 L 0.816406 -11.359375 L 0.816406 0 Z M 5.28125 -11.359375 C 5.28125 -11.359375 5.265625 -11.359375 5.265625 -11.359375 L 5.183594 -11.359375 L 5.183594 -3.847656 C 5.558594 -3.894531 5.898438 -3.960938 6.210938 -4.042969 C 7.921875 -4.5 8.996094 -5.898438 8.996094 -7.644531 C 8.996094 -9.695312 7.335938 -11.359375 5.28125 -11.359375 Z M 5.28125 -11.359375 "/></g></g></g><g fill="#ffffff" fill-opacity="1"><g transform="translate(10.345667, 23.435455)"><g><path d="M 10.542969 -11.359375 L 5.753906 -11.359375 L 5.753906 -6.09375 L 5.101562 -6.09375 L 5.101562 -11.359375 L 0.324219 -11.359375 L 3.535156 -3.863281 L 3.535156 0 L 7.316406 0 L 7.316406 -3.863281 Z M 10.542969 -11.359375 "/></g></g></g><g fill="#39ff14" fill-opacity="1"><g transform="translate(23.408965, 17.448994)"><g><path d="M 6.410156 -3.898438 C 5.386719 -3.898438 4.542969 -4.722656 4.542969 -5.765625 C 4.542969 -6.789062 5.386719 -7.613281 6.410156 -7.613281 C 7.269531 -7.613281 7.976562 -7.035156 8.191406 -6.242188 L 12.472656 -6.242188 C 12.222656 -9.382812 9.597656 -11.84375 6.410156 -11.84375 C 3.039062 -11.84375 0.332031 -9.117188 0.332031 -5.75 C 0.332031 -2.394531 3.039062 0.332031 6.410156 0.332031 C 8.210938 0.332031 9.8125 -0.445312 10.933594 -1.683594 L 12.472656 0.332031 L 12.472656 -5.269531 L 8.191406 -5.269531 C 7.976562 -4.476562 7.269531 -3.898438 6.410156 -3.898438 Z M 6.410156 -3.898438 "/></g></g></g><g fill="#39ff14" fill-opacity="1"><g transform="translate(36.226055, 17.448994)"><g><path d="M 9.746094 0 L 6.410156 -11.511719 L 3.5 -11.511719 L 0.164062 0 L 3.847656 0 L 4.957031 2.296875 L 6.046875 0 Z M 3.863281 0 L 4.957031 -3.765625 L 6.046875 0 Z M 3.863281 0 "/></g></g></g><g fill="#39ff14" fill-opacity="1"><g transform="translate(46.152691, 17.448994)"><g><path d="M 7.664062 -11.511719 L 5.980469 -7.746094 L 4.292969 -11.511719 L 0.824219 -11.511719 L 0.824219 0.015625 L 4.292969 0.015625 L 4.292969 -3.75 L 5.980469 0.015625 L 7.664062 -3.75 L 7.664062 0.015625 L 11.132812 0.015625 L 11.132812 -11.511719 Z M 7.664062 -11.511719 "/></g></g></g><g fill="#39ff14" fill-opacity="1"><g transform="translate(58.127418, 17.448994)"><g><path d="M 7.960938 -7.761719 L 7.960938 -11.511719 L 0.824219 -11.511719 L 0.824219 0.015625 L 7.960938 0.015625 L 7.960938 -3.734375 L 4.65625 -3.734375 L 6.953125 -6.375 L 4.65625 -6.375 L 4.65625 -7.761719 Z M 7.960938 -7.761719 "/></g></g></g><g fill="#39ff14" fill-opacity="1"><g transform="translate(66.930908, 17.448994)"><g><path d="M 7.714844 -8.144531 C 7.714844 -10.175781 6.046875 -11.84375 4.015625 -11.84375 C 1.980469 -11.84375 0.332031 -10.175781 0.332031 -8.144531 C 0.332031 -5.832031 2.046875 -4.871094 3.1875 -4.246094 C 4.210938 -3.667969 4.261719 -3.550781 4.261719 -3.371094 C 4.261719 -3.222656 4.144531 -3.105469 4.015625 -3.105469 C 3.882812 -3.105469 3.765625 -3.222656 3.765625 -3.371094 L 3.765625 -3.566406 L 0.332031 -3.566406 L 0.332031 -3.371094 C 0.332031 -1.320312 1.980469 0.332031 4.015625 0.332031 C 6.046875 0.332031 7.714844 -1.320312 7.714844 -3.371094 C 7.714844 -5.683594 5.996094 -6.625 4.855469 -7.25 C 3.816406 -7.828125 3.765625 -7.945312 3.765625 -8.144531 C 3.765625 -8.292969 3.882812 -8.390625 4.015625 -8.390625 C 4.144531 -8.390625 4.261719 -8.292969 4.261719 -8.144531 L 4.261719 -7.945312 L 7.714844 -7.945312 Z M 7.714844 -8.144531 "/></g></g></g><g fill="#ffffff" fill-opacity="1"><g transform="translate(24.340099, 18.773557)"><g><path d="M 6.410156 -3.898438 C 5.386719 -3.898438 4.542969 -4.722656 4.542969 -5.765625 C 4.542969 -6.789062 5.386719 -7.613281 6.410156 -7.613281 C 7.269531 -7.613281 7.976562 -7.035156 8.191406 -6.242188 L 12.472656 -6.242188 C 12.222656 -9.382812 9.597656 -11.84375 6.410156 -11.84375 C 3.039062 -11.84375 0.332031 -9.117188 0.332031 -5.75 C 0.332031 -2.394531 3.039062 0.332031 6.410156 0.332031 C 8.210938 0.332031 9.8125 -0.445312 10.933594 -1.683594 L 12.472656 0.332031 L 12.472656 -5.269531 L 8.191406 -5.269531 C 7.976562 -4.476562 7.269531 -3.898438 6.410156 -3.898438 Z M 6.410156 -3.898438 "/></g></g></g><g fill="#ffffff" fill-opacity="1"><g transform="translate(37.157188, 18.773557)"><g><path d="M 9.746094 0 L 6.410156 -11.511719 L 3.5 -11.511719 L 0.164062 0 L 3.847656 0 L 4.957031 2.296875 L 6.046875 0 Z M 3.863281 0 L 4.957031 -3.765625 L 6.046875 0 Z M 3.863281 0 "/></g></g></g><g fill="#ffffff" fill-opacity="1"><g transform="translate(47.083824, 18.773557)"><g><path d="M 7.664062 -11.511719 L 5.980469 -7.746094 L 4.292969 -11.511719 L 0.824219 -11.511719 L 0.824219 0.015625 L 4.292969 0.015625 L 4.292969 -3.75 L 5.980469 0.015625 L 7.664062 -3.75 L 7.664062 0.015625 L 11.132812 0.015625 L 11.132812 -11.511719 Z M 7.664062 -11.511719 "/></g></g></g><g fill="#ffffff" fill-opacity="1"><g transform="translate(59.058552, 18.773557)"><g><path d="M 7.960938 -7.761719 L 7.960938 -11.511719 L 0.824219 -11.511719 L 0.824219 0.015625 L 7.960938 0.015625 L 7.960938 -3.734375 L 4.65625 -3.734375 L 6.953125 -6.375 L 4.65625 -6.375 L 4.65625 -7.761719 Z M 7.960938 -7.761719 "/></g></g></g><g clip-path="url(#6cfc464bd4)"><g fill="#ffffff" fill-opacity="1"><g transform="translate(67.862041, 18.773557)"><g><path d="M 7.714844 -8.144531 C 7.714844 -10.175781 6.046875 -11.84375 4.015625 -11.84375 C 1.980469 -11.84375 0.332031 -10.175781 0.332031 -8.144531 C 0.332031 -5.832031 2.046875 -4.871094 3.1875 -4.246094 C 4.210938 -3.667969 4.261719 -3.550781 4.261719 -3.371094 C 4.261719 -3.222656 4.144531 -3.105469 4.015625 -3.105469 C 3.882812 -3.105469 3.765625 -3.222656 3.765625 -3.371094 L 3.765625 -3.566406 L 0.332031 -3.566406 L 0.332031 -3.371094 C 0.332031 -1.320312 1.980469 0.332031 4.015625 0.332031 C 6.046875 0.332031 7.714844 -1.320312 7.714844 -3.371094 C 7.714844 -5.683594 5.996094 -6.625 4.855469 -7.25 C 3.816406 -7.828125 3.765625 -7.945312 3.765625 -8.144531 C 3.765625 -8.292969 3.882812 -8.390625 4.015625 -8.390625 C 4.144531 -8.390625 4.261719 -8.292969 4.261719 -8.144531 L 4.261719 -7.945312 L 7.714844 -7.945312 Z M 7.714844 -8.144531 "/></g></g></g></g></svg>