<svg xmlns="http://www.w3.org/2000/svg" xmlns:xlink="http://www.w3.org/1999/xlink" width="500" zoomAndPan="magnify" viewBox="0 0 375 374.999991" height="500" preserveAspectRatio="xMidYMid meet" version="1.0"><defs><g/></defs><g fill="#39ff14" fill-opacity="1"><g transform="translate(104.209759, 197.586755)"><g><path d="M 25.878906 -27.878906 L 14.117188 -27.878906 L 14.117188 -14.960938 L 12.519531 -14.960938 L 12.519531 -27.878906 L 0.800781 -27.878906 L 8.679688 -9.480469 L 8.679688 0 L 17.957031 0 L 17.957031 -9.480469 Z M 25.878906 -27.878906 "/></g></g></g><g fill="#39ff14" fill-opacity="1"><g transform="translate(88.510794, 179.049994)"><g><path d="M 11.277344 0 L 11.277344 -27.878906 L 2 -27.878906 L 2 0 Z M 12.960938 -27.878906 C 12.960938 -27.878906 12.917969 -27.878906 12.917969 -27.878906 L 12.71875 -27.878906 L 12.71875 -9.4375 C 13.640625 -9.558594 14.480469 -9.71875 15.238281 -9.917969 C 19.4375 -11.039062 22.078125 -14.480469 22.078125 -18.757812 C 22.078125 -23.796875 18 -27.878906 12.960938 -27.878906 Z M 12.960938 -27.878906 "/></g></g></g><g fill="#ffffff" fill-opacity="1"><g transform="translate(85.095834, 179.049994)"><g><path d="M 11.277344 0 L 11.277344 -27.878906 L 2 -27.878906 L 2 0 Z M 12.960938 -27.878906 C 12.960938 -27.878906 12.917969 -27.878906 12.917969 -27.878906 L 12.71875 -27.878906 L 12.71875 -9.4375 C 13.640625 -9.558594 14.480469 -9.71875 15.238281 -9.917969 C 19.4375 -11.039062 22.078125 -14.480469 22.078125 -18.757812 C 22.078125 -23.796875 18 -27.878906 12.960938 -27.878906 Z M 12.960938 -27.878906 "/></g></g></g><g fill="#ffffff" fill-opacity="1"><g transform="translate(100.172261, 197.586755)"><g><path d="M 25.878906 -27.878906 L 14.117188 -27.878906 L 14.117188 -14.960938 L 12.519531 -14.960938 L 12.519531 -27.878906 L 0.800781 -27.878906 L 8.679688 -9.480469 L 8.679688 0 L 17.957031 0 L 17.957031 -9.480469 Z M 25.878906 -27.878906 "/></g></g></g><g fill="#39ff14" fill-opacity="1"><g transform="translate(140.325801, 189.035188)"><g><path d="M 15.730469 -9.566406 C 13.214844 -9.566406 11.148438 -11.59375 11.148438 -14.148438 C 11.148438 -16.660156 13.214844 -18.6875 15.730469 -18.6875 C 17.835938 -18.6875 19.578125 -17.269531 20.105469 -15.324219 L 30.605469 -15.324219 C 29.996094 -23.023438 23.550781 -29.066406 15.730469 -29.066406 C 7.457031 -29.066406 0.8125 -22.375 0.8125 -14.105469 C 0.8125 -5.878906 7.457031 0.8125 15.730469 0.8125 C 20.148438 0.8125 24.078125 -1.09375 26.835938 -4.136719 L 30.605469 0.8125 L 30.605469 -12.929688 L 20.105469 -12.929688 C 19.578125 -10.984375 17.835938 -9.566406 15.730469 -9.566406 Z M 15.730469 -9.566406 "/></g></g></g><g fill="#39ff14" fill-opacity="1"><g transform="translate(171.781076, 189.035188)"><g><path d="M 23.917969 0 L 15.730469 -28.253906 L 8.59375 -28.253906 L 0.40625 0 L 9.445312 0 L 12.160156 5.632812 L 14.835938 0 Z M 9.484375 0 L 12.160156 -9.242188 L 14.835938 0 Z M 9.484375 0 "/></g></g></g><g fill="#39ff14" fill-opacity="1"><g transform="translate(196.142696, 189.035188)"><g><path d="M 18.808594 -28.253906 L 14.675781 -19.011719 L 10.539062 -28.253906 L 2.027344 -28.253906 L 2.027344 0.0390625 L 10.539062 0.0390625 L 10.539062 -9.203125 L 14.675781 0.0390625 L 18.808594 -9.203125 L 18.808594 0.0390625 L 27.324219 0.0390625 L 27.324219 -28.253906 Z M 18.808594 -28.253906 "/></g></g></g><g fill="#39ff14" fill-opacity="1"><g transform="translate(225.530675, 189.035188)"><g><path d="M 19.539062 -19.050781 L 19.539062 -28.253906 L 2.027344 -28.253906 L 2.027344 0.0390625 L 19.539062 0.0390625 L 19.539062 -9.160156 L 11.429688 -9.160156 L 17.066406 -15.648438 L 11.429688 -15.648438 L 11.429688 -19.050781 Z M 19.539062 -19.050781 "/></g></g></g><g fill="#39ff14" fill-opacity="1"><g transform="translate(247.135906, 189.035188)"><g><path d="M 18.929688 -19.984375 C 18.929688 -24.972656 14.835938 -29.066406 9.851562 -29.066406 C 4.863281 -29.066406 0.8125 -24.972656 0.8125 -19.984375 C 0.8125 -14.308594 5.027344 -11.957031 7.824219 -10.417969 C 10.335938 -9 10.457031 -8.714844 10.457031 -8.269531 C 10.457031 -7.90625 10.175781 -7.621094 9.851562 -7.621094 C 9.527344 -7.621094 9.242188 -7.90625 9.242188 -8.269531 L 9.242188 -8.757812 L 0.8125 -8.757812 L 0.8125 -8.269531 C 0.8125 -3.242188 4.863281 0.8125 9.851562 0.8125 C 14.835938 0.8125 18.929688 -3.242188 18.929688 -8.269531 C 18.929688 -13.945312 14.714844 -16.253906 11.917969 -17.796875 C 9.363281 -19.214844 9.242188 -19.5 9.242188 -19.984375 C 9.242188 -20.351562 9.527344 -20.59375 9.851562 -20.59375 C 10.175781 -20.59375 10.457031 -20.351562 10.457031 -19.984375 L 10.457031 -19.5 L 18.929688 -19.5 Z M 18.929688 -19.984375 "/></g></g></g><g fill="#ffffff" fill-opacity="1"><g transform="translate(135.929995, 189.035188)"><g><path d="M 15.730469 -9.566406 C 13.214844 -9.566406 11.148438 -11.59375 11.148438 -14.148438 C 11.148438 -16.660156 13.214844 -18.6875 15.730469 -18.6875 C 17.835938 -18.6875 19.578125 -17.269531 20.105469 -15.324219 L 30.605469 -15.324219 C 29.996094 -23.023438 23.550781 -29.066406 15.730469 -29.066406 C 7.457031 -29.066406 0.8125 -22.375 0.8125 -14.105469 C 0.8125 -5.878906 7.457031 0.8125 15.730469 0.8125 C 20.148438 0.8125 24.078125 -1.09375 26.835938 -4.136719 L 30.605469 0.8125 L 30.605469 -12.929688 L 20.105469 -12.929688 C 19.578125 -10.984375 17.835938 -9.566406 15.730469 -9.566406 Z M 15.730469 -9.566406 "/></g></g></g><g fill="#ffffff" fill-opacity="1"><g transform="translate(167.38527, 189.035188)"><g><path d="M 23.917969 0 L 15.730469 -28.253906 L 8.59375 -28.253906 L 0.40625 0 L 9.445312 0 L 12.160156 5.632812 L 14.835938 0 Z M 9.484375 0 L 12.160156 -9.242188 L 14.835938 0 Z M 9.484375 0 "/></g></g></g><g fill="#ffffff" fill-opacity="1"><g transform="translate(191.74689, 189.035188)"><g><path d="M 18.808594 -28.253906 L 14.675781 -19.011719 L 10.539062 -28.253906 L 2.027344 -28.253906 L 2.027344 0.0390625 L 10.539062 0.0390625 L 10.539062 -9.203125 L 14.675781 0.0390625 L 18.808594 -9.203125 L 18.808594 0.0390625 L 27.324219 0.0390625 L 27.324219 -28.253906 Z M 18.808594 -28.253906 "/></g></g></g><g fill="#ffffff" fill-opacity="1"><g transform="translate(221.134869, 189.035188)"><g><path d="M 19.539062 -19.050781 L 19.539062 -28.253906 L 2.027344 -28.253906 L 2.027344 0.0390625 L 19.539062 0.0390625 L 19.539062 -9.160156 L 11.429688 -9.160156 L 17.066406 -15.648438 L 11.429688 -15.648438 L 11.429688 -19.050781 Z M 19.539062 -19.050781 "/></g></g></g><g fill="#ffffff" fill-opacity="1"><g transform="translate(242.7401, 189.035188)"><g><path d="M 18.929688 -19.984375 C 18.929688 -24.972656 14.835938 -29.066406 9.851562 -29.066406 C 4.863281 -29.066406 0.8125 -24.972656 0.8125 -19.984375 C 0.8125 -14.308594 5.027344 -11.957031 7.824219 -10.417969 C 10.335938 -9 10.457031 -8.714844 10.457031 -8.269531 C 10.457031 -7.90625 10.175781 -7.621094 9.851562 -7.621094 C 9.527344 -7.621094 9.242188 -7.90625 9.242188 -8.269531 L 9.242188 -8.757812 L 0.8125 -8.757812 L 0.8125 -8.269531 C 0.8125 -3.242188 4.863281 0.8125 9.851562 0.8125 C 14.835938 0.8125 18.929688 -3.242188 18.929688 -8.269531 C 18.929688 -13.945312 14.714844 -16.253906 11.917969 -17.796875 C 9.363281 -19.214844 9.242188 -19.5 9.242188 -19.984375 C 9.242188 -20.351562 9.527344 -20.59375 9.851562 -20.59375 C 10.175781 -20.59375 10.457031 -20.351562 10.457031 -19.984375 L 10.457031 -19.5 L 18.929688 -19.5 Z M 18.929688 -19.984375 "/></g></g></g></svg>